<?xml version="1.0" encoding="UTF-8" standalone="no"?>
<svg
   xmlns="http://www.w3.org/2000/svg"
   viewBox="0 0 451.84 448.57333"
   fill="#fff">
   <g
     transform="matrix(1.3333333,0,0,-1.3333333,0,448.57333)"
     id="g10"><g
       transform="scale(0.1)"
       id="g12"><g
         id="g14"><g
           clip-path="url(#clipPath20)"
           id="g16">
           <path
             style="fill:#fff;fill-opacity:1;fill-rule:nonzero;stroke:none"
             d="m 2482.38,1952.79 c -8.12,-36.84 -31.24,-67.82 -46.47,-101.72 -0.1,-0.25 -0.19,-0.47 -0.29,-0.72 3.46,44.42 -10.43,89.85 -3.5,135.01 6.38,41.61 16.34,73.66 0.49,114.11 -0.42,1.1 -2.27,1.07 -2.21,-0.3 2.07,-45.74 -21.89,-81.52 -27.62,-125.33 -1.86,15.77 -3.73,31.53 -0.73,47.97 3.38,18.48 13.6,38.62 9.49,57.97 -3.63,17.09 -10.62,29.21 -21.71,42.58 -23.11,27.83 -21.04,48.42 -11.31,73.11 4.39,5.28 8.61,10.63 11.99,16.19 16.65,15.14 26.79,39.93 23.87,62.03 -0.22,1.67 -2.3,2.54 -3.31,0.91 -13.54,-22.15 -32.34,-41.98 -55.37,-54 -4.74,-2.49 -10.23,-5.24 -15.74,-8.36 8.58,13 20.75,24.29 31.09,35.35 21.66,23.13 35.4,47.45 25.57,78.52 -0.37,1.16 -2.2,1.31 -2.49,0 -6.45,-29.29 -33.4,-49.77 -56.23,-69.71 6.56,12.42 14.78,24.23 21.02,36.74 13.05,26.22 16.56,52.21 11.05,80.81 -0.28,1.41 -2.51,1.38 -2.8,0 -5.47,-25.13 -15.03,-45.81 -27.49,-65.76 11.72,62.52 10.46,128.74 -12.17,179.29 -0.23,0.49 -1.02,0.13 -0.88,-0.39 9.46,-37 5.18,-73.89 -3.23,-110.7 -11.06,79.84 -34.54,163.58 -58.8,239.66 -0.43,1.36 -2.57,1.16 -2.53,-0.34 2.23,-84.75 34.56,-164.46 35.39,-249.64 0.61,-61.88 -11.03,-120.71 -6.78,-180.96 -18.06,30.03 -35.9,59.76 -52.17,89.33 -0.44,0.83 -1.7,0.26 -1.47,-0.61 16.5,-63.42 45.01,-122.02 73.71,-180.62 16.11,-46.9 38.13,-92.07 55.7,-138.16 12.75,-33.44 22.51,-67.85 29.35,-102.96 0.45,-2.35 0.75,-4.72 1.14,-7.08 2.07,-36.84 -0.92,-74 -0.15,-111.05 -4.85,-20.3 -7.64,-40.71 -10.11,-56.87 -8.15,-53.24 -9.75,-105.43 1.14,-158.14 0.15,-0.76 1.41,-0.76 1.56,0 7.77,42.38 9.56,85.43 15.39,128.06 6.06,-45.28 13.84,-90.37 19.37,-135.7 16.88,-138.35 5.84,-301.44 -103.02,-402.18 -61.9,-57.29 -155.06,-92.27 -205.01,-161.958 -25.53,-24.07 -34.17,-65.461 -52.16,-94.891 -27.49,-44.992 -85.01,-38.5 -128.12,-25.312 -107.31,32.812 -102.94,142.261 -136.92,230.801 -17.57,45.81 -51.68,87.99 -97.46,106.93 -5.7,5.23 -11.73,10.18 -16.77,15.37 -14.33,14.83 -14.11,34.01 -18.07,51.77 0.79,15.6 0.67,31.3 0.01,47.17 -0.92,21.96 -2.17,45.34 -5.09,68.41 0.15,1.95 0.26,3.88 0.49,5.45 1.78,12.28 8.21,19.22 19.82,22.7 3.4,1.04 7.36,1.41 11.58,1.55 32.13,-9.73 65.32,-15.02 98.95,-12.71 11.77,0.81 23.09,3.22 33.82,6.96 -6.08,-5.94 -12.77,-11.73 -19.3,-16.36 -0.63,-0.43 -0.51,-1.71 0.44,-1.62 12.04,1.22 21.42,4.81 30.6,13 4.41,3.93 11.71,10.96 15.49,18.26 6.11,3.85 11.91,8.15 17.37,12.91 -6.92,-12.7 -16.16,-24.89 -25.02,-35.87 -0.64,-0.81 0.19,-2.17 1.18,-1.53 16.2,10.56 26.49,22.84 35.6,39.96 3.07,5.78 6.25,12.39 8.77,19.25 3.75,4.87 7.27,9.93 10.41,15.21 -2.19,-18.89 -7.18,-37.88 -11.02,-56.18 -0.23,-1.05 1.19,-1.71 1.77,-0.75 14.34,23.98 29,63.82 26.01,97.37 0.05,0.2 0.12,0.4 0.16,0.61 2.07,8.26 3.17,16.56 3.55,24.82 8.97,-9.45 18.41,-18.43 26.56,-28.67 1.55,-1.92 4.09,0.54 3.19,2.46 -7.41,15.99 -11.6,32.68 -18.95,48.59 -1.4,12.16 -9.34,26.65 -12.51,37.34 -1.92,6.51 -13.59,31.47 -10.19,39.69 0.46,0.28 1,0.55 1.62,0.76 8.56,-3.44 17.09,-6.97 25.55,-10.79 0.21,-0.09 0.46,0.17 0.27,0.35 -43.44,41.3 -110.08,86.3 -170.76,96.08 -19.41,5.43 -39.04,7.73 -57.89,6.02 -0.8,-0.07 -1.09,-1.04 -0.41,-1.5 38.83,-26.03 83.43,-38.37 119.2,-69.75 40.4,-35.44 64.72,-92.73 49.7,-145.25 -17.26,-60.4 -75.07,-73.92 -129.04,-68.13 -1.44,0.4 -2.87,0.75 -4.3,1.22 -0.28,0.1 -0.52,0.2 -0.79,0.28 -16.88,11.7 -34.93,22.27 -51.69,34.31 -14.02,10.07 -23.73,13.69 -41,13.5 -23.39,-0.24 -42.71,-17.41 -63.2,-32.2 -27.03,-8.95 -47.26,-18.15 -78.26,-9.61 -29.95,8.27 -45.8,39.51 -53.1,66.82 -13.41,50.2 6.77,99.25 42.42,133.93 40.07,38.96 97.83,47.53 140.05,81.62 1.31,1.05 0.09,2.85 -1.24,2.97 -34.26,3.36 -72.48,-8.06 -106.93,-25.45 -21.03,-7.11 -41.86,-17.81 -60.18,-25.54 -32.37,-13.65 -57.25,-34.17 -79.74,-60.86 -0.62,-0.75 0.19,-2 1.1,-1.4 7.59,4.82 15.39,9.33 23.32,13.62 12.7,-1.95 7.94,-11.85 4.49,-22.7 -4.4,-13.85 -9.96,-27.68 -15.67,-41.03 -0.8,-1.86 -1.85,-4.18 -2.89,-6.72 -21.08,-27.31 -35.71,-61.91 -43.85,-92.75 -0.11,-0.43 0.45,-0.8 0.76,-0.45 18.34,20.39 34.21,41.75 52.26,61.32 0.12,-0.02 0.23,-0.03 0.35,-0.03 -19.94,-33.99 -7.87,-86.33 14.34,-114.6 0.19,-0.23 0.6,0.01 0.49,0.27 -7.91,20.46 -11.25,42.85 -10.42,64.71 0.26,6.8 1.72,13.19 3.65,19.4 0.93,-4.26 2.03,-8.47 3.32,-12.63 0.6,-13.18 4.3,-26.92 7.65,-38.39 5.82,-19.96 16.83,-34.16 32.19,-47.8 0.78,-0.69 2.19,0.25 1.52,1.19 -9.39,13.11 -15.96,28.33 -20.62,43.88 7.74,-10.33 17.05,-19.27 27.84,-26.22 6.13,-12.19 14.02,-18.97 26.34,-25.2 1.51,-0.77 3.23,1.19 1.87,2.43 -4.1,3.8 -7.89,8.78 -11.26,14.13 8.42,-3.3 17.45,-5.56 27.22,-6.4 22.71,-1.94 42.4,1.81 62.42,7.83 8.33,1 16.66,2.02 24.85,0.17 13.45,-3.01 19.78,-13.15 25.63,-24 0.84,-2.72 1.64,-5.38 2.36,-7.97 -0.3,-13.54 0.14,-27.19 0.23,-40.88 0.2,-30.31 -0.42,-59.21 -4.4,-88.05 -2.89,-6.91 -5.51,-14.01 -9.62,-20.41 -6.63,-10.34 -16.96,-17.75 -26.3,-25.4 -2.68,-2.19 -12.48,-8.21 -20.37,-14.97 -75.06,-39.58 -119.65,-125.7 -141.07,-205.668 -13.77,-51.41 -18.63,-126.723 -76.01,-148.481 -54.75,-20.793 -90.62,78.84 -116.58,112.188 -19.6,25.203 -41.65,48.269 -64.34,70.762 -44.11,47.199 -92.37,91.769 -129.64,144.689 -24.66,40.18 -41.4,83.88 -51.568,133.54 -17.609,85.99 -16.949,176.98 -7.356,263.91 0.692,6.3 1.204,12.47 1.786,18.7 1.253,-3.1 2.636,-6.12 4.324,-9.04 0.168,-0.28 0.402,-0.52 0.617,-0.8 1.887,-31.68 4.605,-63.45 9.488,-94.56 0.082,-0.56 1.039,-0.56 1.119,0 5.5,39.06 13.43,85.67 16.06,132.23 1.78,13.75 1.25,28.23 1.4,42.59 0.45,46.23 -4.64,92.79 -7.64,138.88 -2.94,45.14 -4.14,90.32 -6.09,135.48 -0.7,16.24 -0.61,32.2 -0.96,48.03 3.17,16.88 6.63,33.44 11.06,49.72 23.35,59.23 59.82,113.99 99.6,165.73 5.86,7.24 11.62,14.54 17.2,21.94 3.89,4.9 7.79,9.77 11.71,14.6 8.12,7.75 16.31,15.4 24.32,23.14 34.59,33.5 68.3,66.38 86.89,111.53 0.98,2.39 -2.6,3.47 -3.89,1.64 -22.74,-32.16 -49.9,-58.68 -78.99,-83.81 17.77,44.87 18.72,94.46 18.17,142.47 -0.26,23.32 -5.04,48.38 -3.05,71.57 2.4,28.2 9.63,56.02 15.34,83.68 8.28,40.11 12.55,77.17 5.87,117.84 -0.28,1.7 -2.74,1.13 -2.86,-0.4 -3.38,-47.83 -14,-95.11 -25.45,-141.58 -10.67,-43.35 -25.96,-86.46 -26,-131.11 -0.01,-11.87 -0.24,-23.51 -0.83,-34.91 -1.15,4.86 -2.17,9.63 -2.92,14.24 -9.73,59.44 3.51,118.74 1.27,178.36 -0.03,1.06 -1.53,1.02 -1.61,0 -4.33,-51.85 -27.19,-99.95 -30.34,-152.1 -2.63,-43.81 13.38,-85.84 17.71,-129.01 -0.2,-0.59 -0.45,-1.17 -0.65,-1.77 -6.17,23.89 -21.11,46.26 -29.89,69.05 -13.27,34.43 0.88,74.61 -8.39,110.22 -0.33,1.25 -2.14,1.2 -2.49,0 -19.75,-67.57 -11.82,-131.61 11.83,-195.74 -1.58,1.27 -3.17,2.54 -4.77,3.82 -29.73,23.44 -38.92,65.43 -49.36,100.31 -0.19,0.67 -1.35,0.56 -1.26,-0.19 3.72,-31.96 6.9,-63.51 17.46,-94.19 6.7,-19.43 22.75,-35.9 34.5,-53.5 -1.26,-1.83 -2.58,-3.62 -3.87,-5.4 -11.25,24.16 -42.95,41.24 -56.51,62.54 -0.51,0.81 -1.62,0.25 -1.47,-0.61 2.52,-14.55 10.05,-27.41 17.51,-39.92 0.4,-0.69 0.85,-1.38 1.29,-2.06 4.94,-45.68 -43.96,-32.91 -54.29,-70.5 -6.358,-23.1 -2.04,-47.74 -2.55,-72.17 -5.358,-17.18 -13.245,-32.79 -25.98,-47.5 -8.257,-9.55 -19.789,-20.03 -26.105,-32.04 -2.797,9.85 -5.516,19.74 -8.586,29.55 -0.559,1.77 -3.238,1.92 -3.726,0 -6.532,-25.81 -4.797,-62.48 7.347,-90.84 1.352,-11.07 3.262,-22.18 4.942,-33.21 -17.461,20.52 -37.914,39.6 -51.344,60.85 -20.754,32.83 33.347,79.57 48.41,106.46 14.559,25.95 18.883,56.4 22.312,85.48 3.993,33.76 5.735,67.71 13.325,100.91 9.656,42.26 36.595,81.12 54.535,120.29 37.65,82.23 64.42,168.95 100.24,251.99 29.86,69.2 67.94,136.48 92.16,207.85 7.56,22.29 33.04,89.27 49.22,36.9 6.84,-22.15 8.12,-46.1 9.57,-69.11 2.23,-35.69 -1.37,-69.47 7.15,-104.71 8.95,-36.95 35.49,-67.09 44.41,-104.67 9.25,-38.94 5.16,-74.21 23.83,-111.2 10.27,-20.33 27.61,-38.34 45.55,-54.11 -8.4,-3.8 -16.56,-7.91 -24.43,-12.29 -7.62,0.69 -15.16,1.5 -22.3,5.68 -15.09,8.84 -20.75,31.05 -25.74,46.32 -10.26,31.38 -18.24,64.02 -25.82,96.13 -0.11,0.52 -1.01,0.41 -0.95,-0.14 4.77,-44.47 -6.54,-87.29 10.24,-130.87 5.19,-13.47 17.35,-28.82 31.73,-38.77 -8.64,-6.78 -16.56,-13.99 -23.35,-21.75 -0.8,-0.92 -0.3,-2.47 1.03,-2.47 33.11,0.3 66.3,15.88 98.27,24.36 33.74,8.96 65.39,22 99.99,28.37 45.89,8.46 89.49,3.73 132.79,-5.75 -9.44,-2.98 -18.36,-6.72 -26.36,-11.68 -9.57,-5.93 -6.35,-17.92 2.85,-21.8 30.42,-12.83 65.28,-3.9 96.99,1.2 45.25,7.29 90.08,15.51 135.87,18.62 41.46,2.85 82.29,0.98 122.33,-10.41 38.64,-11 70.3,-32.36 110.33,-37.73 1.9,-0.28 4.24,2.17 2.2,3.75 -19.33,15.02 -39.26,28.56 -59.94,40.21 49.92,43.11 114.3,68.73 143.24,131.83 24.36,53.13 17.61,116.6 19.81,173.51 1.01,26.26 3.74,52.43 9.59,78.06 1.65,7.26 3.79,15.33 7.63,22.09 2.87,-3.76 5.3,-7.99 7.79,-11.86 25.64,-39.65 41.38,-86.89 59.98,-130.13 30.07,-69.95 62.03,-141.08 100.66,-206.73 46.82,-79.59 85.87,-158.26 94.75,-251.36 7.55,-79.23 9.91,-173.99 -7.27,-251.96 z M 2231.44,993.289 c 0.06,-1.66 0.36,-3.25 1.11,-4.609 -0.41,-0.321 -0.85,-0.66 -1.02,-0.782 -1.06,-0.687 -2.19,-1.25 -3.32,-1.789 0.04,0.121 -2.9,-0.929 -3.66,-1.109 -0.06,0 -0.06,-0.02 -0.09,-0.02 -0.02,0 -0.02,0 -0.03,0 -0.67,-0.082 -1.33,-0.058 -2,-0.05 -0.08,0 -0.11,0 -0.17,0 -0.36,0.101 -0.98,0.308 -1.36,0.429 -0.05,0.032 -0.09,0.032 -0.13,0.082 3.47,2.641 7.05,5.25 10.67,7.848 z m -83.23,-100.07 c 0.52,-1.5 1.19,-2.93 2.1,-4.34 -1.81,-1.77 -3.83,-3.41 -5.98,-4.867 1.34,3.07 2.64,6.148 3.88,9.207 z M 2028.24,748.551 c 0.62,-1.582 1.46,-2.903 2.41,-4.031 -1.51,-2.051 -3.25,-3.938 -5.14,-5.622 -6.06,-5.41 -14.39,-5.347 -21.24,-1.898 -5.28,2.68 -9.33,5.961 -11.62,11.582 -0.57,1.438 -1.2,3.359 -1.73,5.488 7.8,11.532 32.34,7.41 37.32,-5.519 z m -582.05,97.679 c -0.26,0.379 -0.51,0.762 -0.76,1.141 0.03,0.078 0.06,0.168 0.09,0.231 0.21,-0.454 0.45,-0.911 0.67,-1.372 z m 221.13,-38.441 c -0.63,-0.027 -1.26,-0.09 -1.87,-0.117 -57.11,3.129 -108.96,26.058 -149.16,67.609 2.67,-1.941 5.36,-3.859 8.23,-5.652 28.07,-17.688 62.69,-28.867 95.22,-33.57 59.29,-8.61 117.55,8.14 158.95,50.48 -26.2,-45.019 -59.32,-72.988 -111.37,-78.75 z m -90.59,-7.598 c -16.81,1.11 -32.35,3.969 -48.33,13.36 -11.55,6.801 -22.6,14.679 -32.43,23.789 -8.88,11.68 -14.4,24.59 -18.62,38.07 22.56,-36.039 58.02,-61.109 99.38,-75.219 z m 185.32,-18.472 c -6.06,-2.981 -12.27,-5.668 -18.7,-7.848 -1.55,-0.262 -3.04,-0.621 -4.6,-0.859 -8.34,-1.301 -16.88,-2.352 -25.46,-3.481 30.37,10.289 59.97,24.668 80.98,43.629 -9.03,-12.129 -19.91,-22.41 -32.22,-31.441 z M 1580.6,941.25 c -17.85,6.629 -31.32,28.559 -42.96,42.949 -12.94,15.981 -27.06,34.591 -26.16,56.251 0.07,1.74 -0.17,3.28 -0.54,4.69 8.91,13.94 19.22,26.96 30.68,38.94 6.08,6.37 12.59,11.82 19.32,16.86 16.98,5.71 33.84,9.99 51.53,12.68 5.71,-0.2 11.41,-0.64 16.97,-1.24 30.52,-3.28 71.62,-26.56 104.43,-26.84 15.49,-21.57 25.6,-45.66 33.57,-70.82 -5.4,-7.82 -11.16,-15.349 -18.28,-22.501 -11.77,-11.789 -24.18,-21.637 -33.72,-35.387 -0.2,-0.293 0.13,-0.641 0.45,-0.551 20.25,5.528 41.57,17.809 58.94,33.379 2.96,-10.801 5.74,-21.68 8.6,-32.558 -44.48,-44.704 -102.3,-65.262 -165.62,-61.352 -31.34,1.93 -61.89,13.898 -88.23,30.398 -19.51,12.192 -31.79,34.743 -49.16,48.813 2.63,9.148 5.44,18.219 8.81,27.119 0.17,0.45 0.38,0.9 0.56,1.37 5.35,-11.028 12.91,-21.251 20.75,-30.61 18.27,-21.82 42.09,-30.039 68.42,-37.578 3.9,-1.102 5.32,4.609 1.64,5.988 z m -422.49,-19.07 c -0.01,1.871 0.05,3.699 0.33,5.531 0.37,2.469 1,5.238 1.96,7.879 6.61,-6.789 13.07,-13.711 19.39,-20.77 -0.02,-0.019 -0.03,-0.05 -0.05,-0.058 -1.93,-2.082 -3.67,-2.262 -5.52,-2.301 -1.67,-0.02 -4.44,0.937 -7.02,2.301 -3.53,1.886 -6.37,4.527 -9.09,7.418 z m -89.65,104.12 c 3.64,-3.79 7.36,-7.51 11.07,-11.24 -1.22,0.18 -2.37,0.49 -3.26,0.87 -3.43,1.51 -5.86,3.35 -8.32,5.62 -0.03,0.03 -0.04,0.05 -0.07,0.08 0.12,1.57 0.29,3.11 0.58,4.67 z M 2257.1,924.809 C 2208.54,860.27 2169.52,789.012 2122.82,723.148 2015.19,571.352 1852.19,497.07 1667.15,507.559 c -158.2,8.953 -290.32,80.921 -395.79,196.14 -46.52,50.84 -88.51,105.153 -130.65,159.59 -23.25,30.031 -46.56,61.012 -72.27,89.5 -33.11,45.313 -66.73,98.871 -51.89,135.351 9.76,-13.61 20.34,-26.79 31.6,-39.69 -1.56,-2.52 -2.57,-5.34 -3,-8.41 -1.59,-11.58 3.18,-22.11 10.4,-30.88 6.82,-8.31 17.45,-14.59 28.4,-14.422 4.44,0.063 8.58,1.5 12.3,3.672 12.17,-11.84 24.48,-23.558 36.68,-35.379 -3.29,-5.32 -5.38,-11.551 -5.93,-16.449 -1.75,-15.051 4.79,-28.98 13.83,-40.562 8.52,-10.879 22,-18.879 36.02,-18.879 7.33,0 14.31,3.019 20.08,7.64 5.33,-6.57 10.57,-13.23 15.52,-20.152 11.76,-16.469 21.67,-34.391 32.44,-51.25 -0.62,-2.981 -0.9,-5.981 -0.88,-8.59 0.05,-9.84 2.75,-19.578 7.29,-28.258 8.77,-16.73 27.75,-23.043 44.55,-16.992 6.16,-3.598 12.68,-6.84 20.07,-9.25 42.4,-13.937 79.62,10.961 104.74,43.731 67.13,-63.231 162.14,-96.149 252.97,-99.918 73.62,-3.051 179.35,23.718 232.92,81.957 22,-9.86 45.68,-16.059 69.46,-18.348 -2.78,-4.34 -4.28,-9.66 -3.81,-15.949 0.1,-1.282 0.51,-2.41 1.06,-3.43 0.29,-6.992 3.22,-13.742 7.33,-19.363 11.16,-15.34 31.74,-21.809 49.46,-15.09 16.72,6.351 29.63,22.269 31.67,40.109 0.83,7.211 -1.28,17.024 -5.58,25.192 2.13,1.058 4.14,2.281 6.19,3.441 2.56,-3.941 4.92,-8.012 6.26,-13.199 1.34,-5.16 1.86,-10.453 1.91,-15.75 0.04,-4.172 -1.23,-8.031 0.72,-11.871 0.64,-1.25 2.66,-1.891 3.84,-1.012 9.36,6.91 5.1,33.34 -4.96,46.441 26.1,17.262 46.85,43.84 62.61,72.899 0.62,-0.109 1.22,-0.27 1.87,-0.348 12.58,-1.449 24.22,6.02 33.23,13.981 9.27,8.179 17.08,20.707 16.4,33.449 -0.68,13.09 -9.4,21.711 -20.32,26.5 13.22,14.379 27.21,27.68 42.47,40.289 1.4,-1.781 2.93,-3.461 4.68,-4.738 8.57,-6.293 20.65,-3.821 29.46,0.32 9.17,4.277 17.08,13.137 19.43,23.066 1.38,5.852 0.45,12.562 -2.14,18.482 12.67,8.3 25.34,16.55 37.84,25.01 5.42,-4.09 12.74,-4.67 19.58,0.99 4.77,3.96 8.07,9.58 10.49,15.22 0.95,2.18 2.01,4.75 2.88,7.42 10.17,7.81 20.05,15.94 29.48,24.7 -3.37,-63.9 -62.25,-108.2 -100.96,-159.661 z m 275.6,1293.811 c -9.38,90.78 -44.85,170 -89.77,248.45 -42.28,73.85 -79.84,151.06 -116.5,227.83 -21.89,45.86 -41.9,96.24 -71.85,137.55 -29.04,40.08 -62.33,1.4 -72.95,-31.23 -17.92,-55.05 -14.13,-118.24 -12.79,-175.2 1.29,-54.2 -8.12,-96.83 -49.64,-134.27 -31.5,-28.4 -68.82,-47.16 -95.96,-80.4 -37.95,18.24 -78.46,29.97 -122.47,32.7 -44.58,2.77 -90.36,-5.05 -134.36,-11.44 -3.18,-0.46 -6.46,-0.88 -9.79,-1.27 -0.05,0.04 -0.1,0.05 -0.15,0.08 -69.79,27.97 -147.33,42.19 -222.21,32.14 -25.99,-3.48 -55.79,-10.2 -85.2,-20.1 -22.68,30.73 -52.37,51.34 -62.14,92.45 -10.25,43.2 -8.03,81.11 -28.07,122.48 -10.16,20.96 -22.12,39.25 -27.86,62.2 -6.19,24.8 -3.13,52.1 -3.82,77.39 -0.61,22.37 -6.26,46.11 -11.61,67.68 -9.03,36.54 -31.27,77.41 -73.67,55.32 -24.5,-12.73 -33.57,-41.82 -42.25,-66.02 -15.61,-43.58 -36.03,-84.89 -55.12,-127.06 -40.01,-88.35 -75.75,-177.36 -109.72,-268.16 -30.89,-82.58 -82.308,-155.91 -92.749,-244.61 -5.117,-43.46 -4.18,-88.97 -23.059,-129.35 -14.941,-31.92 -42.922,-54.44 -54.82,-88.06 -21.731,-61.37 64.801,-103.79 94.933,-151.02 -2.605,-40.04 0.118,-80.55 8.442,-119.01 -1.399,-15.43 -2.742,-30.86 -4.246,-46.29 -5.274,-54.2 -13.285,-106.63 -22.047,-160.37 -15.328,-94.01 -11.395,-188.29 7.547,-281.46 8.937,-44.01 25.367,-83.85 47.57,-120.79 -16.023,-21 -16.996,-47.38 -10.273,-73.93 2.543,-10.06 23.202,-55.268 30.552,-65.721 0.73,-1.219 1.45,-2.438 2.18,-3.641 20.01,-33.109 44.34,-71.269 73.49,-98.238 12.57,-16.629 25.05,-33.309 37.17,-50.219 45.16,-63.019 89.65,-126.41 143.28,-182.601 117.94,-123.578 276.34,-183.141 446.26,-182.809 184.02,0.359 337.93,91.551 444.06,237.988 55.94,77.172 100.41,161.731 160.58,235.95 49.77,61.41 98.89,107.761 72.46,191.561 76.02,103.32 84.04,249.02 71.18,371.18 -6.31,59.7 -18.08,118.63 -26.71,178 1.84,19.12 1.82,38.57 4.83,57.59 0.43,2.75 1,5.47 1.61,8.21 14.32,30.71 22.21,63.45 35.5,94.87 14.86,35.1 34.68,66.24 44.76,103.43 10.76,39.74 8.2,83.66 9.47,124.43 1.58,51.35 1.22,102.65 -4.07,153.79" /><path
             id="path24"
             style="fill:#fff;fill-opacity:1;fill-rule:nonzero;stroke:none"
             d="m 1193.4,1287.64 c 8,31.96 19.52,63.03 28.37,94.79 10.05,36.13 10.68,69.25 12.38,106.34 0.16,3.39 -4.78,3.24 -5.15,0 -4.81,-40.76 -18.69,-79.85 -33.09,-118.79 -11.12,-21.6 -22.08,-43.69 -30.65,-65.96 -0.61,-1.02 -1.22,-2.08 -1.82,-3.09 -12.82,-21.85 -16.78,-47.27 -35.4,-65.73 -22.74,-22.53 -33.2,22.37 -40.06,49.73 -4.92,57.31 11.95,112.18 12.44,170.02 0.03,1.81 -2.49,2.01 -3.03,0.43 -11.32,-33.09 -18.95,-67.34 -22.33,-101.65 -0.73,-4.17 -1.3,-8.28 -1.85,-12.04 -1.84,-12.22 -3.53,-24.5 -6.01,-36.62 -0.13,-0.65 -0.35,-1.29 -0.5,-1.94 -2.24,-4.76 -4.8,-9.33 -8.17,-13.41 -10.73,-12.98 -20.8,-3.67 -29.47,7.59 -0.33,0.6 -0.72,1.15 -1.04,1.76 -3.53,6.66 -5.76,14.04 -8.51,21.08 -6.18,29.42 -10.99,58.55 -15.47,85.1 -0.09,0.57 -0.91,0.39 -0.95,-0.13 -2.3,-30.23 -0.02,-62.42 5.49,-94.53 -0.16,-2.87 0.44,-5.87 1.55,-8.83 8.34,-43.84 22.53,-87.14 39.38,-124.64 27.6,-61.39 91.13,-103.91 139.58,-149.29 2.43,-3.73 5.01,-7.33 7.84,-10.65 3.47,-4.05 9.05,-0.38 9.47,3.93 4.68,48.13 -19.64,101.16 -23.39,150.04 -3.03,39.5 0.81,78.12 10.39,116.49" /><path
             id="path26"
             style="fill:#fff;fill-opacity:1;fill-rule:nonzero;stroke:none"
             d="m 1823.93,1865.05 c -34.58,48.39 -84.72,38.68 -132,19.18 -17.61,-7.27 -36.7,-12.68 -54.59,-3.53 -8.55,4.39 -16.43,8.88 -25.59,11.89 -22.29,7.32 -44.02,-10.8 -58.25,-25.19 -5.02,-5.07 1.68,-14.44 7.82,-10.13 13.5,9.47 27.31,22.15 45.9,18.84 9.07,-1.59 18.42,-10.39 26.08,-15.22 11.39,-7.21 24.24,-8.28 37.26,-5.65 20.2,4.06 38.52,12.01 57.81,18.93 33.77,12.11 56.18,-11.35 86.28,-21.19 6.55,-2.16 13.5,6.17 9.28,12.07" /><path
             id="path28"
             style="fill:#fff;fill-opacity:1;fill-rule:nonzero;stroke:none"
             d="m 1217.67,2595.45 c 0.42,0 0.42,0.68 0,0.68 -0.41,0 -0.41,-0.68 0,-0.68" /><path
             id="path30"
             style="fill:#fff;fill-opacity:1;fill-rule:nonzero;stroke:none"
             d="m 1296.42,1921.98 c -10.22,-2.79 -15.74,-13.12 -13.66,-23.13 1.79,-8.66 10.09,-14.88 18.8,-14.88 12.58,0 22,12.36 18.66,24.49 -2.8,10.16 -13.65,16.32 -23.8,13.52" /><path
             id="path32"
             style="fill:#fff;fill-opacity:1;fill-rule:nonzero;stroke:none"
             d="m 2080.72,1872.26 c 21.96,0 21.96,34.06 0,34.06 -21.97,0 -21.97,-34.06 0,-34.06" /><path
             id="path34"
             style="fill:#fff;fill-opacity:1;fill-rule:nonzero;stroke:none"
             d="m 1375.48,1220.52 c 15.72,0 15.72,24.38 0,24.38 -15.72,0 -15.72,-24.38 0,-24.38" /><path
             id="path36"
             style="fill:#fff;fill-opacity:1;fill-rule:nonzero;stroke:none"
             d="m 1379.46,1151.58 c -10.66,-2.95 -13.36,-18.62 -3.14,-24.06 0.19,-0.09 0.38,-0.2 0.56,-0.29 7.14,-3.8 16.44,-0.6 18.62,7.56 0.05,0.22 0.1,0.4 0.15,0.6 2.59,9.67 -6.45,18.86 -16.19,16.19" /><path
             id="path38"
             style="fill:#fff;fill-opacity:1;fill-rule:nonzero;stroke:none"
             d="m 1474.14,1167.99 c 0.09,0.07 0.19,0.16 0.27,0.26 5.91,5.34 6.24,16.65 0,21.96 -0.08,0.06 -0.18,0.16 -0.27,0.22 -4.41,3.76 -9.63,5.68 -15.43,4.09 -6.82,-1.89 -11.66,-8.25 -11.66,-15.3 0,-14.35 17.05,-20.35 27.09,-11.23" /><path
             id="path40"
             style="fill:#fff;fill-opacity:1;fill-rule:nonzero;stroke:none"
             d="m 1496.1,1259.75 c 0.13,-0.06 0.27,-0.12 0.41,-0.18 8.54,-3.88 19.21,0.58 19.21,11.03 0,10.32 -10.68,15.04 -19.21,11.02 -0.14,-0.06 -0.28,-0.12 -0.41,-0.19 -8.11,-3.84 -8.31,-17.92 0,-21.68" /><path
             id="path42"
             style="fill:#fff;fill-opacity:1;fill-rule:nonzero;stroke:none"
             d="m 1396.77,1325.91 c 11.99,0 11.99,18.59 0,18.59 -11.98,0 -11.98,-18.59 0,-18.59" /><path
             id="path44"
             style="fill:#fff;fill-opacity:1;fill-rule:nonzero;stroke:none"
             d="m 1363.07,1000.3 c 11.98,0 11.98,18.58 0,18.58 -11.98,0 -11.98,-18.58 0,-18.58" /><path
             id="path46"
             style="fill:#fff;fill-opacity:1;fill-rule:nonzero;stroke:none"
             d="m 1819.14,1262.32 c -8.86,0 -16.25,-7.4 -16.25,-16.29 0,-8.84 7.39,-16.24 16.25,-16.24 8.86,0 16.26,7.4 16.26,16.24 0,8.89 -7.4,16.29 -16.26,16.29" /><path
             id="path48"
             style="fill:#fff;fill-opacity:1;fill-rule:nonzero;stroke:none"
             d="m 1881.57,1124.01 c 14.72,0 14.72,22.85 0,22.85 -14.73,0 -14.73,-22.85 0,-22.85" /><path
             id="path50"
             style="fill:#fff;fill-opacity:1;fill-rule:nonzero;stroke:none"
             d="m 1727.44,1318.47 c -12.48,0 -12.48,-19.37 0,-19.37 12.48,0 12.48,19.37 0,19.37" /><path
             id="path52"
             style="fill:#fff;fill-opacity:1;fill-rule:nonzero;stroke:none"
             d="m 1767.34,1197.65 c -15.72,0 -15.72,-24.38 0,-24.38 15.72,0 15.72,24.38 0,24.38" /><path
             id="path54"
             style="fill:#fff;fill-opacity:1;fill-rule:nonzero;stroke:none"
             d="m 1930.93,1218.09 c 7.15,-2.33 15,3.62 15.78,10.76 2.06,7.59 -5.5,15.23 -12.79,15.23 -9.89,0 -16.07,-11 -11.19,-19.53 1.92,-3.33 4.56,-5.25 8.2,-6.46" /><path
             id="path56"
             style="fill:#fff;fill-opacity:1;fill-rule:nonzero;stroke:none"
             d="m 1922.73,984.512 c 12.98,0 12.98,20.128 0,20.128 -12.98,0 -12.98,-20.128 0,-20.128" /><path
             id="path58"
             style="fill:#fff;fill-opacity:1;fill-rule:nonzero;stroke:none"
             d="m 1892.44,1313.38 c 8.98,0 8.98,13.95 0,13.95 -8.99,0 -8.99,-13.95 0,-13.95" /><path
             id="path60"
             style="fill:#fff;fill-opacity:1;fill-rule:nonzero;stroke:none"
             d="m 1725.07,1032.14 c 6.35,7.7 6.28,19.4 -3.2,24.84 -24.72,14.16 -58.05,-0.16 -86.1,6.44 -26.4,6.18 -40.66,20.38 -68.43,11.8 -0.98,-0.31 -0.78,-1.75 0.25,-1.78 34.62,-1.25 52.91,-32.33 81.87,-46.14 22.25,-10.59 58.37,-16.04 75.61,4.84" /><path
             id="path62"
             style="fill:#fff;fill-opacity:1;fill-rule:nonzero;stroke:none"
             d="m 1578.51,1587.88 c -14.76,4.25 -23.62,-2.83 -37.11,-5.78 -0.45,-0.09 -0.35,-0.82 0.12,-0.8 7.07,0.5 15.67,-2.65 23.77,-7.05 0.43,-1.19 1.07,-2.32 2.22,-3.24 5.84,-4.64 9.02,-11.73 10.5,-18.92 0.75,-3.67 0.67,-7.6 0.61,-11.51 -0.39,-1.43 -0.86,-2.87 -1.55,-4.3 -5.71,-11.83 -10.36,-5.7 -19.65,-0.09 -12.34,7.43 -29.34,5.94 -37.39,-6.99 -2.76,-4.44 -4.21,-10.06 -4.53,-16.07 -0.68,-3.04 -0.7,-6.32 0.37,-9.77 0.07,-0.25 0.17,-0.48 0.24,-0.72 2.03,-12.65 8.69,-24.89 18.97,-29.73 8.98,-7.7 20.31,-12.11 33.38,-10.51 22.6,2.78 41.09,18.21 51.03,38.37 10.61,21.5 6,48.09 -8.77,66.55 -8.49,10.61 -19.25,16.83 -32.21,20.56" /><path
             id="path64"
             style="fill:#fff;fill-opacity:1;fill-rule:nonzero;stroke:none"
             d="m 1728.87,1567.18 c -7.61,-16.48 -10.56,-43.22 -4.13,-60.48 8.22,-22.03 24.88,-40.3 47.27,-48.03 22.08,-7.63 56.6,7.15 64.45,30.39 5,10.72 6.26,23.17 4.65,34.9 -2.64,19.13 -23.43,29.67 -40.93,26.31 -8.92,-1.71 -17.3,-7.15 -25.17,-11.52 -6.76,-3.76 -13.34,-1.34 -19.68,1.68 -2.63,4.46 -4.35,9.35 -4.06,15.98 0.6,13.98 12.28,23.63 23.47,29.82 1.28,0.69 1.15,3.02 -0.42,3.3 -19.02,3.05 -37.14,-4.36 -45.45,-22.35" /><path
             id="path66"
             style="fill:#fff;fill-opacity:1;fill-rule:nonzero;stroke:none"
             d="m 1583.73,1628.15 c -0.24,-0.22 -0.13,-0.71 0.2,-0.75 26.83,-4.51 56.36,1.88 83.77,2.12 26.95,0.25 53.23,-7.94 80.07,-5.74 7.06,0.61 11.17,10.49 3.88,14.33 -46.18,24.1 -127.27,26.12 -167.92,-9.96" /><path
             id="path68"
             style="fill:#fff;fill-opacity:1;fill-rule:nonzero;stroke:none"
             d="m 1696.35,1816.26 c 0.85,1.83 0.23,4.15 -1.9,4.7 -7.11,1.85 -14.2,-2.6 -21.5,-2.93 -9.02,-0.45 -18.72,2.26 -26.62,6.37 -1.92,0.99 -3.94,-1.45 -2.34,-3.04 7.47,-7.43 15.53,-12.22 26.01,-13.6 8.32,-1.07 22.42,0 26.35,8.5" /><path
             id="path70"
             style="fill:#fff;fill-opacity:1;fill-rule:nonzero;stroke:none"
             d="m 1680.09,1788.7 c -3.68,-0.03 -7.14,-1.01 -10.87,-0.81 -3.43,0.2 -7.85,1.57 -10.67,3.5 -2.96,2.03 -6.14,-1.82 -4.63,-4.62 5.47,-10.29 18.56,-13.9 29.1,-8.92 5.39,2.54 2.57,10.89 -2.93,10.85" /><path
             id="path72"
             style="fill:#fff;fill-opacity:1;fill-rule:nonzero;stroke:none"
             d="m 1665.61,1751.01 c 3.39,-1.97 6.85,-4.41 10.89,-4.26 4.4,0.18 7.43,5.85 3.78,9.13 -2.98,2.68 -6.89,3.43 -10.56,4.86 -5.75,2.23 -9.19,-6.78 -4.11,-9.73" /><path
             id="path74"
             style="fill:#fff;fill-opacity:1;fill-rule:nonzero;stroke:none"
             d="m 2126.45,1232.05 c -1.83,-27.23 -5.6,-54.24 -10.11,-81.19 -2.45,-6.7 -4.87,-13.47 -9.33,-19.18 -9.54,-12.18 -15.29,-2.81 -20.28,5.79 -1.29,16.98 -3.25,33.43 -5.69,48.71 -10.44,65.21 -34.75,118.4 -78.46,167.76 -3.13,3.55 -7.81,-1.51 -5.07,-5.06 43.07,-55.43 62.56,-120.11 68.55,-189.16 2.6,-29.94 -0.02,-60.52 -1.5,-90.92 -1.67,-7.48 -2.95,-15.06 -4.47,-22.3 -5.88,-27.79 -14.59,-53.41 -27.21,-78.898 -0.4,-0.813 0.54,-1.493 1.22,-0.942 15.35,12.391 24.25,27.988 30.63,45.65 0.52,-6.31 1.24,-12.599 2.28,-18.849 0.13,-0.832 0.52,-1.41 0.98,-1.879 0.54,-2 1.2,-3.902 1.94,-5.73 -10.65,-23.364 -27.76,-41.954 -38.2,-65.903 -0.21,-0.457 0.35,-1.008 0.75,-0.578 17.12,18.508 35.17,31.277 46.75,53.438 2.85,-2.11 5.89,-2.571 9.15,-1.469 -11.61,-38.192 -32.75,-70.391 -55.78,-103.078 -0.19,-0.282 0.23,-0.551 0.45,-0.352 45.33,41.68 88.73,119.219 86.86,187.37 11.22,58.8 11.67,117.2 7.5,176.77 -0.04,0.63 -0.92,0.63 -0.96,0" /><path
             id="path76"
             style="fill:#fff;fill-opacity:1;fill-rule:nonzero;stroke:none"
             d="m 2348.98,1276.74 c -16.2,-12.22 -38.32,-18.46 -51.99,0.33 -4.43,6.08 -6.31,12.8 -7.38,19.77 0.03,9.21 -0.39,18.42 -1.49,27.63 2.17,25.29 1.5,50.6 -2,74.72 -0.07,0.46 -0.86,0.46 -0.93,0 -4.21,-27.82 -6.71,-55.42 -11.05,-82.92 -0.43,-1.34 -0.66,-2.66 -0.97,-4 -17.47,-32.89 -32.66,-75.48 -76.78,-37.49 -17.02,14.67 -31.01,38.91 -39.33,59.52 -3.3,8.22 -5.89,18.88 -10.34,27.71 -15.47,44.05 -30.56,87.16 -31.98,136.84 -0.1,3.68 -5.45,3.64 -5.68,0 -4.06,-66.54 11.97,-117.47 32.8,-179.54 11.33,-33.77 16.45,-67.9 16.21,-103.48 -0.19,-29.37 -3.14,-58.7 -7.25,-87.76 -4.65,-32.75 -16.44,-66.37 -13.51,-99.41 0.54,-6.05 5.93,-10.36 11.17,-10.33 4.71,-1.01 11.13,0.17 18.74,3.91 23.7,11.71 45.22,30.58 64.87,47.97 25.05,22.21 53.65,39.76 79.49,60.99 92.22,75.8 99.09,225.37 84.17,333.52 -0.08,0.64 -1.17,0.49 -1.13,-0.15 2.14,-44.97 -0.7,-90.63 -9.08,-135.19 -7.68,-20.35 -18.64,-39.09 -36.56,-52.64" /><path
             id="path78"
             style="fill:#fff;fill-opacity:1;fill-rule:nonzero;stroke:none"
             d="m 2341.23,1755.81 c -0.01,-0.02 -0.01,-0.05 -0.01,-0.05 -0.03,0.03 -0.03,0.05 -0.05,0.06 0.02,0 0.04,-0.01 0.06,-0.01 z m 13.19,-1.85 c -0.06,-0.34 -0.14,-0.64 -0.22,-0.95 -0.66,0.31 -1.34,0.6 -2.08,0.74 0.78,0.03 1.55,0.12 2.3,0.21 z m -50.84,109.22 c -0.07,-8.66 -0.7,-17.26 -1.3,-25.87 -4.1,-18.03 -12.35,-34.33 -28.6,-51.3 -32.23,-21.23 -69.72,-31 -107.95,-37.98 -0.14,0 -0.26,0.03 -0.41,0.05 -1.1,0.14 -2.01,-0.12 -2.82,-0.51 -13.74,-1.31 -27.52,-2.3 -41.25,-3.34 -0.34,-0.02 -0.38,-0.44 -0.08,-0.57 14.44,-5.94 33.46,-9.74 53.2,-10.63 26.58,-7.5 45.41,-20.03 54.07,-49.57 5.97,-20.33 2.93,-42.3 -2.4,-63.13 -0.01,-0.04 -0.03,-0.1 -0.05,-0.13 0,-0.03 0.02,-0.03 0.02,-0.04 -2.06,-8.01 -4.42,-15.89 -6.76,-23.39 -0.13,-0.43 0.51,-0.7 0.71,-0.31 3.15,6.4 5.95,13 8.4,19.66 4.8,7.23 9.38,14.62 14.78,21.42 2.17,2.72 4.61,4.87 7.19,6.8 2.92,1.92 6.05,3.36 9.7,3.51 9.3,0.37 15.66,-10.75 19.7,-17.81 7.23,-25.02 18.65,-50.46 25.48,-73.97 0.74,-2.56 1.49,-5.24 2.25,-7.97 7.4,-42.34 35.75,-87.53 46.79,-123.83 0.19,-0.62 1.13,-0.49 1.14,0.16 0.16,12.83 -0.81,25.05 -2.89,37.06 1.27,16.4 -1.57,32.81 -3.4,49.24 0.01,12.71 -0.8,25.46 -1.63,38.18 0.08,14.71 0.68,29.44 1.38,44.01 0.75,15.86 3.21,32.05 5.85,48.32 7.85,30.17 12.35,62.34 17.78,91.47 8.01,43.06 7.24,80.9 -8.37,121.95 -0.05,0.12 -0.21,0.07 -0.18,-0.03 3.57,-24.41 1.15,-49.02 -3.58,-73.69 -3.3,-7.49 -8.55,-14.01 -16.91,-9.37 -3.96,2.19 -6.26,6.56 -7.81,11.66 0.91,15.27 0.79,30.64 -0.9,46.12 -5.76,52.87 -40.36,102.56 -65.02,148.02 -0.21,0.38 -0.73,0.05 -0.56,-0.32 10.66,-23.62 21.4,-46.56 30.14,-69.98 1.92,-14.63 4.4,-28.96 4.29,-43.89" /><path
             id="path80"
             style="fill:#fff;fill-opacity:1;fill-rule:nonzero;stroke:none"
             d="m 2073.87,1315.68 c 1.61,-3.9 7.45,-3.59 7.6,1.02 2.58,80.72 -72.93,161.89 -122.36,218.72 -0.14,0.15 -0.43,-0.06 -0.3,-0.24 22.12,-30.13 43.39,-60.74 62.68,-92.76 24.34,-40.39 34.73,-83.99 52.38,-126.74" /><path
             id="path82"
             style="fill:#fff;fill-opacity:1;fill-rule:nonzero;stroke:none"
             d="m 1246.04,1312.8 c 24.55,78.49 50.69,152.96 96.95,221.89 0.43,0.64 -0.56,1.4 -1.06,0.82 -53.11,-60.77 -91.34,-141.33 -100.83,-222.05 -0.34,-2.92 4.13,-3.24 4.94,-0.66" /><path
             id="path84"
             style="fill:#fff;fill-opacity:1;fill-rule:nonzero;stroke:none"
             d="m 2081.52,1856.06 c -23.35,5.21 -45.45,17.94 -68.5,24.63 15.64,18.73 29.67,39.62 51.15,52.41 39.01,23.21 73.82,-14.02 108.98,-35.48 -25.22,-31.47 -47.81,-51.36 -91.63,-41.56 z m 131.76,12.93 c 2.11,4.53 4.05,8.98 5.74,13.7 0.26,0.72 0.51,1.51 0.77,2.28 6.11,1.13 12.27,3.59 18.54,7.88 1.03,0.72 1.03,2.52 -0.38,2.84 -25.15,5.62 -44.18,7.7 -64.78,25.01 -13.42,11.29 -23.9,24.38 -38.68,34.26 -22.31,14.9 -55.89,20.61 -80.93,9.78 -25.71,-11.11 -42.66,-32.6 -60.12,-53.62 -3.14,-3.77 -6.37,-7.39 -9.69,-10.88 -4.27,-3.5 -8.63,-6.84 -13.43,-9.73 -6.95,-4.15 -17.24,-5.51 -22.54,-12.08 -6.95,-3.68 -12.79,-9.53 -15.32,-16.01 -6.28,-16.16 5.31,-31.87 14.02,-43.99 0.29,-0.43 0.86,-0.07 0.67,0.39 -2.31,5.42 -4.35,12.04 -5.55,18.76 1.27,3.91 4.77,4.92 8.8,4.52 0.65,-0.1 1.31,-0.18 1.98,-0.21 0.19,-0.05 0.38,-0.12 0.57,-0.15 0.87,-0.48 1.72,-0.92 2.63,-1.42 3.55,-1.96 6.3,-5.09 8.92,-8.12 5.85,-12.97 13.8,-25.34 19.62,-34.29 15.89,-24.49 36.75,-43.16 65.2,-50.57 1.27,-0.33 2.05,1.46 0.89,2.13 -22.47,12.74 -40.76,33.73 -54.66,55.11 -7.42,11.45 -12.93,24.05 -17.82,36.73 -0.3,0.73 -0.52,1.48 -0.78,2.23 0.43,1.16 1.03,2.01 2.47,2.17 2.04,0.21 3.77,-0.4 5.47,-1.15 21.78,-22.87 42.87,-42.36 77.74,-41.06 0.21,0.01 0.27,0.34 0.05,0.38 -28.38,6.17 -48.38,26.83 -66.92,47.91 -0.06,1.04 0.01,2.01 0.65,2.79 1.42,1.7 3.38,2.13 5.38,2.46 37.18,-23.43 82.97,-51.69 124.27,-31.21 0.76,0.39 0.42,1.7 -0.44,1.64 -20.58,-1.9 -38.25,1.98 -54.74,8.74 13.31,-2.39 26.31,-3.47 37.96,-2.86 34.22,1.76 58.41,31.12 70.62,60.63 1.91,-1.06 3.82,-2.02 5.73,-2.93 -2.6,-6.11 -4.2,-13.11 -6.48,-18.64 -6.19,-14.97 -13.4,-29.48 -23.11,-42.5 -0.19,-0.27 0.24,-0.61 0.47,-0.35 8.89,10.19 16.9,20.99 24.01,32.51 4.1,6.64 10.77,16.14 14.04,25.28 2.01,-0.7 4.01,-1.31 6.02,-1.79 -0.23,-1.57 -0.46,-3.13 -0.77,-4.47 -2.2,-9.49 -4.63,-19.63 -8.46,-28.57 -0.24,-0.58 0.47,-1.02 0.84,-0.5 5.52,7.88 9.84,15.36 13.19,24.38 0.86,2.3 2.02,5.08 3.06,7.96 1.53,-0.13 3.06,-0.19 4.6,-0.16 -0.19,-5.01 1.08,-9.99 0.33,-15.07 -0.03,-0.2 0.25,-0.36 0.35,-0.14" /><path
             id="path86"
             style="fill:#fff;fill-opacity:1;fill-rule:nonzero;stroke:none"
             d="m 1921.15,1771.85 c -0.02,0.07 -0.05,0.15 -0.07,0.23 0.06,-0.05 0.12,-0.13 0.19,-0.17 -0.04,-0.02 -0.08,-0.03 -0.12,-0.06 z m 90.89,-235.57 c 0.35,-0.25 0.84,0.15 0.71,0.55 -4.29,12.58 -11.26,24.04 -19.22,34.83 -5.63,12.8 -12.79,24.86 -20.41,36.67 -0.98,6.43 -5.28,13.43 -5.66,19.24 -0.89,13.76 14.55,8.03 21.18,4.39 4.22,-2.3 9.3,-7.85 14.44,-10.64 8.85,-8.42 17.63,-16.79 27.63,-24.06 0.47,-0.32 1.21,0.24 1,0.78 -4.64,11.53 -10.8,22.57 -18.32,32.57 -1.04,2.03 -2.39,3.86 -3.64,5.05 -0.41,0.37 -0.91,0.73 -1.36,1.13 -2.97,3.5 -6.13,6.82 -9.47,9.99 -1.6,2.54 -4.02,4.54 -6.06,6.85 -4.75,5.37 -8.6,11.5 -11.74,17.93 -3.03,6.22 -4.97,14.39 -0.34,20.32 3.31,4.24 10.62,2.15 16.64,-0.34 15.98,-13.84 32.48,-27.05 49.2,-39.99 0.21,-0.18 0.61,-0.03 0.49,0.27 -9.37,24.93 -30.32,43.85 -48.59,62.51 -9.85,10.07 -20.28,19.53 -29.97,29.78 -3.57,3.8 -6.91,7.8 -10.24,11.84 -1.51,2.01 -3.11,3.97 -4.83,5.8 -0.95,1.12 -1.95,2.17 -2.92,3.27 -22.85,29.91 -49.6,54.7 -67.78,88.97 -14.93,28.14 -29.02,72.59 -51.81,129.75 -0.32,0.8 -1.48,0.49 -1.31,-0.36 10.52,-54.11 25.87,-125.51 61.03,-176.98 4.55,-9.06 9.73,-17.92 12.88,-27.57 5.65,-17.36 -3.85,-39.2 -22.85,-21.33 -0.51,0.49 -0.94,1.01 -1.39,1.53 -1.93,2.78 -3.81,5.59 -5.55,8.46 -14.23,23.53 -22.57,51.87 -40.66,72.73 -0.93,1.09 -2.87,0.23 -2.81,-1.17 1.33,-27.87 17.32,-55.24 30.16,-79.35 3.85,-7.27 8.34,-15.36 13.36,-23.58 0.76,-2.11 1.61,-3.97 2.04,-4.89 3.07,-6.6 6.68,-12.38 9.64,-18.36 1.19,-4.88 2.8,-9.72 3.16,-14.76 0.28,-3.64 0.06,-8.46 -3.2,-10.78 -1.88,-1.33 -4.43,-1.36 -7.08,-0.92 -3.77,3.1 -7.48,6.17 -10.97,9.29 -17.33,15.43 -31.87,31.01 -44.51,50.51 -0.19,0.31 -0.73,0.2 -0.73,-0.19 0.9,-19.8 11.64,-39 23.54,-54.36 10,-12.89 23.32,-27.4 37.32,-38.41 2.46,-2.19 5.04,-4.27 7.71,-6.3 6.86,-8.28 16.26,-15.47 22.73,-21.6 7.72,-7.29 16.71,-15.61 26.63,-21.49 4.84,-4.71 9.53,-9.14 13.53,-13.19 18.43,-18.74 37.08,-38.93 58.4,-54.39" /><path
             id="path88"
             style="fill:#fff;fill-opacity:1;fill-rule:nonzero;stroke:none"
             d="m 2085.44,1521.83 c -7.24,19.46 -16.59,35.65 -28.52,52.36 -0.56,0.8 -1.85,0.34 -1.59,-0.67 4.3,-17.14 9.74,-32.97 15.63,-49.68 5.42,-15.41 5.81,-36.61 14.17,-50.29 1.29,-2.13 4.01,-1.86 5.35,0 9.32,12.9 -0.2,35.29 -5.04,48.28" /><path
             id="path90"
             style="fill:#fff;fill-opacity:1;fill-rule:nonzero;stroke:none"
             d="m 2039.79,1513.67 c -0.35,0.46 -1.01,-0.12 -0.76,-0.58 11.04,-20.11 16.78,-42.26 23.72,-63.99 5.07,-15.84 8.95,-37.51 23.51,-47.16 2.79,-1.85 6.34,0.61 6.41,3.67 0.38,18.33 -13.98,38.17 -21.23,54.74 -8.39,19.16 -18.76,36.88 -31.65,53.32" /><path
             id="path92"
             style="fill:#fff;fill-opacity:1;fill-rule:nonzero;stroke:none"
             d="m 2105.96,1629.58 c -3.86,3.55 -4.88,7.76 -4.65,12.73 0.22,4.83 -0.08,9.84 -0.59,14.66 -0.04,0.38 -0.53,0.35 -0.58,0 -0.96,-7.35 -5.19,-13.53 -4.63,-21.2 0.4,-5.44 4.61,-12.3 9.53,-14.74 4.72,-2.34 9.57,-0.28 12.19,4.03 2.62,4.31 3.83,15.09 -1.68,17.51 -0.88,0.38 -1.99,0.46 -2.7,-0.35 -2.93,-3.35 -0.84,-7.72 -1.68,-11.74 -0.8,-3.77 -2.9,-3.04 -5.21,-0.9" /><path
             id="path94"
             style="fill:#fff;fill-opacity:1;fill-rule:nonzero;stroke:none"
             d="m 2056.19,1715.13 c -9.76,6.54 -20.75,10.97 -30.57,17.58 -10.56,7.1 -20.07,16.41 -29.03,25.4 -0.85,0.83 -2.37,-0.27 -1.68,-1.29 13.11,-19.08 36.49,-41.42 60.69,-43.85 1.24,-0.1 1.46,1.59 0.59,2.16" /><path
             id="path96"
             style="fill:#fff;fill-opacity:1;fill-rule:nonzero;stroke:none"
             d="m 1397.04,1767.19 c -0.11,0.01 -0.2,0.06 -0.31,0.09 0.16,0.09 0.32,0.18 0.47,0.28 -0.05,-0.13 -0.11,-0.25 -0.16,-0.37 z m 75.42,54.43 c 2.34,4.35 4.88,8.58 7.46,12.78 6.47,8.04 12.67,15.97 18.46,23.39 25.47,32.65 40.55,74.3 29.89,115.21 -0.48,1.88 -3.54,2.03 -3.92,0 -9.04,-48.38 -22.3,-84.34 -53.89,-121.55 -8.3,-7.21 -15.76,-15.5 -23.08,-24.06 -12.6,-12.02 -25.87,-24.2 -36.45,-37.7 -20.26,-17.25 -42.21,-33.85 -64.57,-48 -0.22,-0.12 -0.03,-0.43 0.18,-0.33 11.23,5.13 22.13,10.4 32.73,16.04 3.53,0.33 7.07,1.17 10.61,0.67 0.5,-0.08 1.07,-0.28 1.67,-0.54 3.87,-1.91 6.12,-4.36 4.39,-12.37 -2.44,-11.3 -9.11,-22.15 -15.31,-31.74 -2.31,-3.55 -7.88,-8.74 -11.49,-13.81 -5.27,-4.13 -11.41,-8.02 -15.58,-13.2 -15.65,-11.83 -30.46,-24.72 -43.43,-39.87 -0.58,-0.66 0.28,-1.5 0.96,-0.95 20.62,16.93 43.7,30.98 66.98,44.78 5.18,0.74 10.27,0.32 14.05,-2.98 10.73,-9.32 -0.13,-30.19 -5.82,-38.91 -5.58,-8.56 -15.61,-16.12 -24.26,-24.21 -16.08,-10.8 -31.05,-22.95 -42.66,-38.16 -0.15,-0.19 -0.19,-0.34 -0.28,-0.52 -8.13,-8.59 -15.5,-17.69 -21.38,-27.58 -0.23,-0.38 0.29,-0.74 0.61,-0.47 9.7,8.98 19.71,17.49 29.91,25.76 38.99,20.07 75.93,48.51 112.72,72.33 32.77,21.2 60.82,45.66 82.83,78.06 0.24,0.35 0.23,0.69 0.12,0.99 2.11,2.96 4.07,5.85 5.81,8.53 0.19,0.3 -0.22,0.56 -0.45,0.36 -12.58,-11.09 -25.98,-24.72 -43.95,-24.53 -5.57,0.06 -8.92,1.86 -10.86,4.64 -1.46,5.3 -1.62,11.28 -1.1,15.11 1.45,10.42 9.23,17.8 14.81,25.91 15.26,16.21 29.62,32.54 42.65,51.43 2.8,4.07 -3.74,9.14 -6.84,5.29 -10.74,-13.38 -25.41,-26.6 -40.66,-40.33 -6.81,-3.39 -13.36,-3.33 -19.58,-1.1 -3.31,4.25 -4.85,10.07 -3.1,16.22 2.51,8.86 7.49,17.36 11.82,25.41" /><path
             id="path98"
             style="fill:#fff;fill-opacity:1;fill-rule:nonzero;stroke:none"
             d="m 1247.17,1883.41 c -12.01,7.48 -19.76,25.28 -31.43,33.03 31.49,24.94 60.22,68.17 103.38,28.9 14.05,-12.77 28.79,-36.33 45.74,-56.95 -34.9,-29.68 -78.12,-29.65 -117.69,-4.98 z m 156.15,-63.81 c -0.23,-0.24 0.07,-0.64 0.35,-0.47 10.18,6.47 20.7,10.9 30.25,18.59 5.58,4.49 13.3,11.56 17.23,19.26 6.14,6.25 8.33,17.28 -1.72,21.72 -29.03,12.8 -47.51,18 -69.24,43.54 -18.36,21.59 -33.94,44.9 -59.16,59.13 -22.66,12.79 -50,9.03 -72.57,-1.36 -37.18,-17.14 -40.24,-65.5 -87.37,-68.11 -2.21,-0.14 -3.13,-3.01 -1.14,-4.22 3.69,-2.23 7.26,-3.8 10.75,-4.83 -0.01,-0.56 0.09,-1.13 0.36,-1.69 0.53,-1.04 0.91,-2.12 1.14,-3.27 0.14,-0.66 1.11,-0.73 1.42,-0.18 0.59,1.13 1.41,2.07 2.42,2.81 0.37,0.3 0.56,0.67 0.72,1.05 1.37,-0.17 2.72,-0.23 4.08,-0.26 0.19,-2.24 0.45,-4.46 1,-6.69 0.82,-3.28 2.88,-5.12 4.52,-7.97 0.28,-0.48 1.14,-0.31 1.08,0.29 -0.28,2.85 0.92,5.7 1.15,8.58 0.17,2.25 0.32,4.48 0.46,6.71 1.38,0.3 2.76,0.67 4.12,1.11 3.32,-10.19 9.86,-18.86 16.13,-27.69 0.29,-0.41 1.1,-0.15 0.89,0.38 -3.91,9.85 -6.78,20.09 -10.06,30.17 1.66,0.82 3.3,1.71 4.94,2.72 21.61,-23.56 37.8,-45.77 70.72,-57.5 31.42,-11.21 63.91,-3.8 90.34,13.63 4.24,1.69 8.08,2.26 9.04,-1.18 1.43,-5.06 -4.9,-10.34 -8.02,-13.37 -0.34,-0.33 -0.97,-1 -1.62,-1.83 -8.9,-6.34 -18.27,-12.05 -28.86,-16.41 -26.12,-10.72 -52.68,-4.39 -78.86,1.73 -0.11,0.02 -0.17,-0.12 -0.07,-0.18 41.25,-22.95 91.93,-10.31 129.63,16.05 0.53,0.31 1.06,0.61 1.63,0.92 2.62,1.41 6.5,3.65 9.57,3.05 0.84,-0.18 1.37,-0.53 1.78,-0.97 0.12,-0.77 0.05,-1.52 -0.21,-2.2 -14.88,-16.94 -30.32,-32.79 -52.34,-41.89 -0.55,-0.25 -0.36,-1.05 0.26,-0.93 22.42,4.31 41.52,16.08 57.64,31.51 0.8,0.55 1.6,1.04 2.41,1.65 3.44,2.75 6.73,3.94 10.49,5.21 2.03,0.26 3.93,0.38 5.73,-1.13 0.8,-0.67 -0.12,-2.41 -1.37,-4.18 -6.49,-7.11 -12.96,-14.44 -19.64,-21.3" /><path
             id="path100"
             style="fill:#fff;fill-opacity:1;fill-rule:nonzero;stroke:none"
             d="m 1370.5,1785.58 c 1.25,0.79 0.13,2.75 -1.18,2 -13.69,-7.74 -28.21,-13.7 -42.51,-20.22 -11.97,-5.44 -26.85,-11.6 -35.43,-21.74 -1.92,-2.29 -0.09,-5.39 2.82,-4.86 13.4,2.45 25.5,12.02 37.23,18.71 13.55,7.72 25.97,17.65 39.07,26.11" /><path
             id="path102"
             style="fill:#fff;fill-opacity:1;fill-rule:nonzero;stroke:none"
             d="m 1243.07,1705.44 c -3.54,-7.66 -3.44,-14.66 0.92,-22.02 3.82,-6.45 12.44,-10.59 19.85,-8.56 19.48,5.39 17.48,30.74 29.8,42.68 0.64,0.61 -0.17,1.67 -0.93,1.22 -8.45,-4.94 -13.43,-11.33 -18.26,-19.78 -2.95,-5.15 -7.5,-11.7 -14.38,-10.13 -5.31,1.23 -4.67,9.29 -4.32,13.17 0.61,6.62 -9.87,9.47 -12.68,3.42" /><path
             id="path104"
             style="fill:#fff;fill-opacity:1;fill-rule:nonzero;stroke:none"
             d="m 1596.38,1345.19 c 4.75,-12.3 4.59,-25.47 5.38,-38.39 0.14,-2.35 1.54,-4.71 4,-5.25 0.48,-0.13 0.97,-0.25 1.46,-0.2 2.23,0.29 4.84,1.43 5.26,4 2.63,16.37 0.71,36.68 -9.52,50.33 -3.78,5.04 -9.47,9.28 -16.01,9.5 -9.78,0.34 -15.15,-5.27 -22.11,-11.21 -0.35,-0.32 0.09,-0.82 0.46,-0.62 12.24,6.49 25.73,5.68 31.08,-8.16" /><path
             id="path106"
             style="fill:#fff;fill-opacity:1;fill-rule:nonzero;stroke:none"
             d="m 1582.31,1193.19 c 6.77,5.94 18.11,16.73 16.62,26.51 -0.23,1.46 -2.03,1.49 -2.91,0.79 -3.74,-2.96 -5.13,-7.79 -7.69,-11.79 -3.22,-5.04 -7.6,-9.32 -11.96,-13.38 -8.42,-7.82 -17.09,-15.4 -25.41,-23.36 -0.15,-0.15 0.06,-0.43 0.24,-0.31 10.19,7.5 21.56,13.16 31.11,21.54" /><path
             id="path108"
             style="fill:#fff;fill-opacity:1;fill-rule:nonzero;stroke:none"
             d="m 1698.2,1205.96 c -3.8,6.34 -3.97,13.61 -6.34,20.4 -0.38,1.03 -1.93,1.16 -2.25,0 -4.13,-15.16 9.05,-32.86 23.43,-36.53 0.85,-0.23 1.36,0.96 0.6,1.41 -6.26,3.74 -11.67,8.45 -15.44,14.72" /><path
             id="path110"
             style="fill:#fff;fill-opacity:1;fill-rule:nonzero;stroke:none"
             d="m 1690.15,1330.51 c -0.19,5.85 0.04,12.04 2.47,17.47 2.4,5.35 10.56,7.93 15.82,9.48 0.98,0.3 0.85,1.54 0,1.87 -12.85,5 -23.26,-1.61 -26.44,-14.9 -1.8,-7.47 -1.17,-15.51 -0.71,-23.09 0.32,-5.28 -0.71,-14.45 4.37,-17.62 0.69,-0.42 1.77,-0.46 2.45,0 6.66,4.68 2.3,19.78 2.04,26.79" /><path
             id="path112"
             style="fill:#fff;fill-opacity:1;fill-rule:nonzero;stroke:none"
             d="m 1370.86,919.738 c -9.8,-4.937 -11.45,-19.187 -13.91,-28.808 -3.13,-12.321 -5.77,-26.801 -14.03,-36.879 -19.7,-24.039 -48.34,36.629 -60.24,47.418 -0.39,0.351 -1.11,-0.129 -0.77,-0.578 16.12,-21.422 22.75,-74.832 61.91,-64.071 13.06,3.571 18.93,19.051 23.09,30.371 4.89,13.231 15.8,37.45 9.64,51.051 -0.97,2.149 -3.83,2.406 -5.69,1.496" /><path
             id="path114"
             style="fill:#fff;fill-opacity:1;fill-rule:nonzero;stroke:none"
             d="m 1957.45,847.891 c -22.21,2.679 -45.05,18.5 -60.81,33.441 -8.1,7.699 -14.75,16.488 -20.13,26.227 -4.98,9 -5.9,19.281 -10.34,28.371 -1.3,2.691 -5.7,2.64 -7.01,0 -10.57,-21.098 10.11,-46.532 24.01,-60.739 19.96,-20.39 46.3,-30.839 74.28,-28.839 1.02,0.078 0.97,1.437 0,1.539" /><path
             id="path116"
             style="fill:#fff;fill-opacity:1;fill-rule:nonzero;stroke:none"
             d="m 1276.8,957.379 c 12.69,-14.879 26.13,-28.391 36.61,-39.649 0.4,-0.441 0.99,0.11 0.76,0.59 -8.12,16.828 -17.56,32.211 -27.33,47.828 0.57,1.372 0.96,2.84 1.17,4.434 0.61,1.047 0.94,2.258 0.75,3.418 -0.19,1.16 -0.45,2.301 -0.65,3.449 -0.24,2.231 -0.68,4.52 -1.3,6.871 -1.19,5.629 -2.58,11.2 -4.08,16.75 14.24,-16.691 29.37,-32.66 44.64,-48.05 0.32,-0.321 1,0 0.81,0.46 -11.04,27.27 -29.02,48.9 -46.45,72.3 -3.56,4.78 -6.98,9.6 -10.41,14.41 -2.58,9.09 -4.97,18.22 -6.72,27.51 -0.03,0.12 -0.04,0.31 -0.07,0.46 11.84,-14.88 25.69,-27.87 37.06,-36.98 0.33,-0.26 0.85,0.07 0.61,0.47 -10.35,17.93 -23.83,33.64 -33.76,51.83 -4.24,7.79 -6.68,16.18 -8.76,24.63 -1.42,22.34 -0.95,44.91 0.29,67.12 4.27,76.68 28.02,156.04 59.17,225.92 1.44,3.23 -3.21,6.11 -4.85,2.84 -34.45,-69.08 -59.48,-138.04 -69.59,-214.94 -0.76,-5.77 -1.41,-11.81 -2,-17.96 -2.02,-7.98 -4.98,-16.35 -10.72,-15.28 -3.17,0.6 -5.64,2.69 -7.6,5.43 -0.56,1.48 -1.07,3 -1.6,4.53 -2.38,21.69 -4.64,43.51 -8.02,65.47 -0.03,0.26 -0.43,0.3 -0.53,0.1 -16.23,-35.35 -6.93,-78.74 -1.69,-115.98 6.2,-44.15 17.19,-92.85 36.14,-133.391 1.3,-2.758 3.66,-6.797 6.66,-10.809 6.69,-13.078 14.66,-25.18 22.87,-35.199 0.22,-0.281 0.58,0.078 0.45,0.348 -3.45,7.171 -6.48,14.652 -9.33,22.261 2.46,-1.101 4.98,-1.59 7.47,-1.191" /><path
             id="path118"
             style="fill:#fff;fill-opacity:1;fill-rule:nonzero;stroke:none"
             d="m 1030.77,1754.51 c 6.54,-23.25 11.35,-45.86 14.97,-68.74 0.2,-2.29 0.52,-4.49 1,-6.6 2.59,-17.48 4.53,-35.17 5.96,-53.5 0.04,-0.5 0.86,-0.7 0.94,-0.12 3.45,22.67 5.16,45.89 3.49,68.89 0.86,5.4 2.52,10.48 6.36,14.96 4.63,2.75 10.51,3.25 16.71,1.15 3.16,-1.73 6.33,-3.73 9.37,-4.94 2.05,-1.57 3.91,-3.28 5.63,-5.15 6.33,-11.29 12.98,-22.33 18.48,-33.24 2.37,-4.7 4.69,-9.36 6.91,-14.02 0.87,-2.63 1.76,-5.16 2.63,-7.79 0.53,-1.59 1.5,-2.74 2.61,-3.7 12.62,-28.56 21.11,-57.45 18.43,-90.13 -0.06,-0.73 1.14,-1.1 1.44,-0.39 16.61,38 7.26,86.86 -11.81,130.47 -3.04,10.13 -6.87,20.03 -11.16,29.8 -0.91,2.69 -1.86,5.32 -2.6,7.73 -3.12,10.24 -4.12,20.06 0.75,30 1.62,3.3 4.45,6.39 7.96,7.7 1.44,0.15 2.88,0.26 4.34,0.22 0.89,-0.03 1.68,-0.29 2.55,-0.43 1.79,-0.84 4.02,-2.17 6.21,-3.42 15.84,-15.62 34.97,-27.79 55.94,-32.4 1,-0.23 1.32,1.11 0.41,1.48 -29.64,12.1 -53.16,45.66 -68.54,71.99 -2.52,4.33 -4.76,8.73 -6.88,13.19 -3.59,12.16 -7.53,24.29 -9,37.15 -0.57,4.86 -0.8,9.78 -0.9,14.71 0.08,1.69 0.06,3.36 -0.07,5.03 0.1,11.8 1.32,23.72 2.99,35.43 4.11,14 8.26,27.75 9.61,42.32 0.07,0.69 -0.88,0.82 -1.2,0.34 -7.18,-11.09 -14.44,-22.8 -20.78,-34.74 -0.83,-0.7 -1.65,-1.48 -2.48,-2.41 -6.36,-6.96 -10.58,-7.86 -14.02,1.61 -1.21,3.29 -1.44,6.83 -1.31,10.39 0.46,1.65 0.94,3.3 1.41,4.97 10.42,36.83 34.33,68.97 42.68,105.75 0.14,0.61 -0.61,1.1 -1.08,0.63 -20.78,-21.34 -37.03,-48.44 -52.7,-73.68 -9.55,-15.4 -13.8,-32.32 -20.17,-48.3 -2.38,-2.66 -5.01,-4.77 -8.07,-6.51 -0.75,0.34 -1.51,0.67 -2.37,1.16 -1.92,1.13 -3.39,2.78 -4.87,4.4 -2.05,6.13 -3.47,12.93 -4.6,18.36 0.84,11.86 1.01,23.77 -0.98,35.93 -0.13,0.83 -1.56,0.86 -1.67,0 -4.78,-34.18 -15.32,-66.69 -15.72,-101.51 -0.14,-12.11 0.5,-24.99 1.79,-38 -1.31,-22.06 5.33,-44.44 11.41,-66.04" /><path
             id="path120"
             style="fill:#fff;fill-opacity:1;fill-rule:nonzero;stroke:none"
             d="m 2238.49,1821.79 c -0.67,-2.82 1.3,-5.4 4.2,-5.5 15.99,-0.6 28.01,21.54 33.59,34.27 8.22,18.79 7.33,36.97 -0.15,55.58 -0.62,1.59 -3.43,1.57 -3.23,-0.43 1.54,-16.04 -2.3,-33.32 -9.19,-47.8 -3.94,-8.26 -9.17,-15.59 -15.37,-22.3 -4.75,-5.12 -8.23,-6.98 -9.85,-13.82" /><path
             id="path122"
             style="fill:#fff;fill-opacity:1;fill-rule:nonzero;stroke:none"
             d="m 2232.22,1863.89 c -0.2,-2.05 1.83,-3.61 3.68,-3.67 8.11,-0.28 13.91,9.12 18.08,15.08 5.47,7.82 6.76,16.72 6.14,26.04 -0.15,2.39 -3.16,2.69 -3.99,0.55 -2.88,-7.45 -7.66,-14.17 -12.11,-20.77 -3.94,-5.84 -11.08,-9.89 -11.8,-17.23" /><path
             id="path124"
             style="fill:#fff;fill-opacity:1;fill-rule:nonzero;stroke:none"
             d="m 1052.34,1527.33 c 16.98,-16.92 38.75,22.6 33.02,36.72 -1.03,2.53 -3.81,3.51 -5.98,1.59 -4.89,-4.34 -5.5,-12.22 -7.54,-18.14 -1.91,-5.6 -4.98,-11.53 -11.55,-12.38 0.26,0.03 0.89,9.04 1.02,9.77 1.07,6.63 0.95,11.7 0.57,18.49 -0.71,12.69 3.13,24.84 -0.85,37.21 -0.75,2.35 -3.88,2.26 -4.67,0 -2.7,-7.76 -3.47,-15.28 -4.31,-23.37 -0.86,-8.34 0.87,-17.45 -0.63,-25.51 -1.29,-6.94 -4.99,-18.49 0.92,-24.38" /><path
             id="path126"
             style="fill:#fff;fill-opacity:1;fill-rule:nonzero;stroke:none"
             d="m 2185.39,1488.2 c 9.48,-0.2 18.37,9.32 21.63,17.49 7.02,17.66 0.41,39.23 8.6,56.31 0.17,0.38 -0.31,0.83 -0.61,0.49 -8.28,-9.84 -9.99,-18.38 -11.38,-31.1 -0.96,-8.86 -1.67,-18.64 -7.33,-25.97 -2.07,-2.66 -7.74,-8.31 -10.99,-4.92 -10.49,10.91 -8.93,38.57 -28,40.4 -3.74,0.36 -6.27,-4.53 -4.31,-7.53 5.87,-8.95 11.04,-16.49 15.31,-26.55 3.09,-7.27 7.55,-18.4 17.08,-18.62" /><path
             id="path128"
             style="fill:#fff;fill-opacity:1;fill-rule:nonzero;stroke:none"
             d="m 1126.32,1878.35 c -7.89,-9.42 -7.2,-21.66 -5.16,-33.22 2.87,-16.23 12.31,-26.43 23.03,-37.98 0.46,-0.49 1.26,0.15 0.91,0.72 -5.8,9.18 -9.6,20.88 -13.08,31.18 -4.34,12.86 -1.23,24.48 -1.24,37.45 0,2.13 -2.94,3.67 -4.46,1.85" /><path
             id="path130"
             style="fill:#fff;fill-opacity:1;fill-rule:nonzero;stroke:none"
             d="m 1156.24,1832.86 c 0.77,-0.53 1.45,0.6 0.93,1.24 -5.11,6.29 -7.77,14.57 -9.18,22.48 -1.34,7.58 1.8,15.89 -0.63,22.95 -0.7,2.05 -3.07,2.72 -4.69,1.25 -6.63,-6.03 -5.61,-18.7 -3.82,-26.7 2.2,-9.9 9.66,-15.58 17.39,-21.22" /><path
             id="path132"
             style="fill:#fff;fill-opacity:1;fill-rule:nonzero;stroke:none"
             d="m 2120.69,2047 c 0.55,-0.25 1.1,-0.44 1.66,-0.72 -0.65,0.11 -1.32,0.15 -1.97,0.28 0.12,0.13 0.2,0.3 0.31,0.44 z m -214.16,-80.72 c -4.53,2.61 -10.52,4.14 -14.17,7.62 -6.97,6.69 -15.29,15.39 -18.67,24.87 -0.51,2.35 -1.02,4.65 -1.52,6.76 -0.18,0.7 -1.39,0.79 -1.5,0 -3.97,-27.81 5.93,-79.47 42.69,-80.88 25.4,-0.94 35.27,10.96 53.02,28 13.84,13.28 42.59,71.05 101.75,78.91 0.14,0.03 0.27,0.03 0.41,0.04 41.5,2.6 93.03,-3.13 133.12,-12.69 0.42,-0.09 0.69,0.49 0.29,0.72 -12.69,6.91 -28.26,13.32 -45.3,18.46 -18.72,10.61 -29.82,35.17 -54.15,36.33 -10.26,0.46 -17.08,-0.7 -26.72,-4.71 -19.7,-8.2 -35.4,-12.86 -55.18,-9.53 -64.29,10.85 -56.94,-110.35 -114.07,-93.9" /><path
             id="path134"
             style="fill:#fff;fill-opacity:1;fill-rule:nonzero;stroke:none"
             d="m 1307.17,2097.43 c -32.27,11.21 -58.32,-20.06 -86.32,-30.21 -0.19,-0.07 -0.3,-0.16 -0.46,-0.27 -9.25,-3.18 -18.24,-7.04 -26.8,-11.6 -0.43,-0.21 -0.23,-0.91 0.25,-0.9 31.85,1.21 60.92,6.24 91.92,3.95 13.99,-2.13 27.58,-4.27 40.7,-8.06 14.58,-5.04 27.18,-11.91 39.65,-19.7 2.55,-1.99 5.07,-4.1 7.55,-6.42 28.76,-26.85 37.54,-67.29 78.26,-79.22 49.03,-14.37 39.88,61.38 34.73,86.22 -0.09,0.41 -0.77,0.3 -0.76,-0.12 0.1,-5.27 0.21,-15.86 -0.95,-27.19 -3.44,-7.52 -6.44,-14.46 -16.09,-15.11 -10.2,-0.72 -17.73,6 -24.78,12.32 -17.85,24.77 -20.81,66.94 -51.56,82.05 -8.59,4.23 -18.91,1.38 -27.66,-0.55 -26.88,-5.92 -37.04,7.66 -57.68,14.81" /><path
             id="path136"
             style="fill:#fff;fill-opacity:1;fill-rule:nonzero;stroke:none"
             d="m 1149.87,2110.5 c 34.5,29.35 63,67 97.24,97.49 32.77,29.21 67.15,55 99.08,84.97 0.61,0.58 -0.3,1.43 -0.92,0.92 -20.32,-17.33 -48.24,-27.62 -70.78,-42.23 -17.55,-11.36 -33.27,-26 -49.49,-39.14 -31.8,-25.72 -71.82,-56.09 -84.56,-96.51 -1.83,-5.8 5.41,-8.92 9.43,-5.5" /><path
             id="path138"
             style="fill:#fff;fill-opacity:1;fill-rule:nonzero;stroke:none"
             d="m 1207.02,2134.58 c -1.25,-3.49 2.59,-6.97 5.94,-5.96 26.58,8.03 50.44,33.68 74.11,48.67 28.65,18.12 56.28,35.62 79.12,60.89 1.94,2.15 -0.52,5.5 -3.13,4.03 -31.52,-17.53 -63.29,-34.71 -94.14,-53.5 -21.61,-13.13 -52.97,-29.11 -61.9,-54.13" /><path
             id="path140"
             style="fill:#fff;fill-opacity:1;fill-rule:nonzero;stroke:none"
             d="m 1302.57,2148.42 c -0.88,-1.85 0.14,-4.46 2.51,-4.37 12.29,0.62 24.19,9.71 34.73,15.47 11.81,6.45 22.87,15.77 32.02,25.62 2.73,2.93 -1.02,8.46 -4.5,5.81 -10.72,-8.16 -22.74,-13.14 -34.33,-19.79 -10.34,-5.94 -25.03,-11.38 -30.43,-22.74" /><path
             id="path142"
             style="fill:#fff;fill-opacity:1;fill-rule:nonzero;stroke:none"
             d="m 2164.57,2247.13 c -32.75,30.4 -73.99,50.32 -114.01,69.2 -1.11,0.54 -2.05,-1.01 -0.98,-1.66 37.44,-23.03 70.36,-50.14 101.41,-81.13 29.53,-29.5 47.47,-73.82 79.9,-98.63 5.06,-3.85 10.27,2.51 9.48,7.31 -6.38,38.67 -47.95,79.03 -75.8,104.91" /><path
             id="path144"
             style="fill:#fff;fill-opacity:1;fill-rule:nonzero;stroke:none"
             d="m 2072.07,2229.36 c -0.37,0.17 -0.68,-0.32 -0.33,-0.53 32.68,-20.99 61.49,-50.56 88.34,-78.49 27.16,-28.23 45.36,-67.4 75.74,-91.76 3.72,-2.98 9.75,-0.34 8.36,4.87 -9.19,34.49 -40.58,65.64 -64.07,91.44 -31.26,34.34 -65.85,55.94 -108.04,74.47" /><path
             id="path146"
             style="fill:#fff;fill-opacity:1;fill-rule:nonzero;stroke:none"
             d="m 2196.3,2045.82 c 3.4,-1.86 7.22,1.87 5.29,5.29 -7.76,13.84 -22.4,26.3 -33.79,37.32 -11.41,11.01 -23.22,21.49 -36.16,30.7 -0.76,0.54 -1.63,-0.64 -0.98,-1.27 12.23,-11.82 22.82,-24.93 33.14,-38.41 8.94,-11.69 19.49,-26.52 32.5,-33.63" /><path
             id="path148"
             style="fill:#fff;fill-opacity:1;fill-rule:nonzero;stroke:none"
             d="m 2163.79,2448.36 c 16.57,-6.38 35.18,17.39 43.65,29.01 13.08,17.98 17.69,39.24 22.48,60.45 0.33,1.43 -1.57,2.24 -2.36,0.99 -9.7,-15.2 -19.07,-30.72 -29.2,-45.61 -5.91,-8.68 -13.19,-16.87 -21.49,-23.28 -6.99,-5.38 -13.34,-6.72 -16.7,-15.22 -1.09,-2.79 1.22,-5.42 3.62,-6.34" /><path
             id="path150"
             style="fill:#fff;fill-opacity:1;fill-rule:nonzero;stroke:none"
             d="m 1305.66,2387.58 c 2.55,0.46 3.59,3.31 3.15,5.56 -1.75,8.89 -7.4,13.15 -12.81,20.47 -6.75,9.1 -9.39,20.27 -11.52,31.16 -4.44,22.79 -7.55,48.82 -9.19,71.98 -0.13,1.87 -2.77,1.87 -2.9,0 -1.91,-28.99 -10.61,-53.5 -5.68,-83.31 3.05,-18.44 15.87,-50.06 38.95,-45.86" /><path
             id="path152"
             style="fill:#fff;fill-opacity:1;fill-rule:nonzero;stroke:none"
             d="m 1263.27,2394.18 c -6.47,7.91 -13.6,16.56 -14.53,27.2 -0.36,4.11 -6.58,5.55 -7.61,1.03 -3.12,-13.81 -1.11,-30.12 10.81,-39.57 8.09,-6.4 17.91,3.24 11.33,11.34" /><path
             id="path154"
             style="fill:#fff;fill-opacity:1;fill-rule:nonzero;stroke:none"
             d="m 2216.99,2436.84 c 0.9,0.91 -0.42,2.13 -1.38,1.36 -10.91,-8.82 -25.06,-10.06 -35.71,-19.69 -9.42,-8.49 -14.75,-26.62 -12.19,-38.9 5.95,-28.6 46.2,-19.42 46.92,6.87 0.16,5.93 -6.18,8.46 -10.93,6.26 -3.75,-1.74 -11.61,-11.06 -14.59,-10.63 -3.28,0.49 -0.48,11.38 0.2,13.72 4.3,14.94 16.94,30.23 27.68,41.01" /><path
             id="path156"
             style="fill:#fff;fill-opacity:1;fill-rule:nonzero;stroke:none"
             d="m 1412.83,677.609 c -5.72,-1.89 -10.55,-1.398 -14.54,0.602 -2.77,10.371 -5.12,19.078 -1.01,30.121 2.65,7.117 9.92,19.078 18.31,15.688 3.7,-3.879 6.05,-9.008 7.5,-14.098 3.09,-10.832 2.43,-28.063 -10.26,-32.313 z m 17.29,66.711 c -10.58,8.789 -29.61,16.821 -41.3,6.649 -1.08,-0.949 -1.81,-2.137 -2.28,-3.438 -0.53,-0.269 -1.09,-0.531 -1.58,-0.84 -10.51,-6.293 -15.7,-21.543 -17.85,-32.75 -5.71,-29.882 9.94,-57.121 41.68,-58.941 28.51,-1.648 44.4,29.93 40.47,54.68 -2.12,13.359 -8.66,25.941 -19.14,34.64" /><path
             id="path158"
             style="fill:#fff;fill-opacity:1;fill-rule:nonzero;stroke:none"
             d="m 1582.84,603.199 c -0.11,7.371 -1.02,14.262 -1.44,21.653 -0.35,6.257 1.49,12.16 3.89,17.828 2.9,4.691 7.23,8.32 13.05,11.531 0.85,0.488 1.52,1.051 2.11,1.68 8.72,-3.571 15.2,-10.141 16.46,-23.371 1.76,-18.758 -17.07,-31.231 -34.07,-29.321 z m -27.09,73.77 c -0.73,-0.52 -1.33,-1.16 -1.84,-1.848 -11.04,-6.75 -18.29,-19.66 -19.65,-33.801 -2.51,-26.05 15.62,-50.601 39.09,-59.699 34.9,-13.57 70.42,15.93 71.24,50.899 1,43.378 -55.15,67.812 -88.84,44.449" /><path
             id="path160"
             style="fill:#fff;fill-opacity:1;fill-rule:nonzero;stroke:none"
             d="m 1809.12,635.852 c -0.34,2.718 -0.28,5.878 0.02,9.187 0.94,1.852 2.17,3.582 4.02,4.981 5.6,4.281 11.23,0.75 16.58,-1.891 5.51,-2.738 10.33,-7.578 13.74,-12.629 3.89,-5.781 2.8,-10.281 1.92,-16.73 -0.03,-0.18 -0.01,-0.372 -0.03,-0.551 -0.95,-0.668 -1.88,-1.34 -2.94,-1.899 -16.59,-8.781 -31.2,2.879 -33.31,19.532 z m 2.45,46.918 c -4.52,-1.801 -8.43,-4.938 -12.43,-10.75 -7.9,-11.489 -11.33,-25.098 -10.54,-38.95 1.88,-32.789 30.74,-49.371 61.16,-41.609 28.19,7.168 39.1,39.828 28.76,64.98 -10.48,25.508 -42.5,40.707 -66.95,26.329" /><path
             id="path162"
             style="fill:#fff;fill-opacity:1;fill-rule:nonzero;stroke:none"
             d="m 1894.19,675.641 c 2.86,-11.75 4.25,-23.911 3.7,-35.969 -0.6,-12.93 -8.67,-21.602 -11.26,-33.371 -0.54,-2.379 1.82,-4.09 3.98,-3.051 11.01,5.441 13.61,21.172 14.89,32.289 1.65,14.41 -2.98,28.371 -10.25,40.531 -0.34,0.559 -1.21,0.2 -1.06,-0.429" /><path
             id="path164"
             style="fill:#fff;fill-opacity:1;fill-rule:nonzero;stroke:none"
             d="m 2184.49,938.012 c -0.81,0.668 -2.01,0.039 -1.78,-1.043 1.55,-7.071 4.11,-13.828 6.02,-20.809 1.71,-6.23 -0.27,-13.07 3.82,-18.25 1.08,-1.359 3.26,-1.058 4.39,0 5.4,5.11 2.33,14.371 0.46,20.672 -2.29,7.688 -6.74,14.34 -12.91,19.43" /><path
             id="path166"
             style="fill:#fff;fill-opacity:1;fill-rule:nonzero;stroke:none"
             d="m 2268.31,1011.78 c -2.17,-7.48 -2.88,-15.198 -4.92,-22.721 -0.39,-1.5 0.24,-3.239 1.62,-3.989 0.27,-0.14 0.55,-0.289 0.84,-0.351 1.97,-0.399 3.68,0.551 4.33,2.461 2.78,8.082 1.95,16.54 -0.38,24.6 -0.21,0.74 -1.27,0.74 -1.49,0" /><path
             id="path168"
             style="fill:#fff;fill-opacity:1;fill-rule:nonzero;stroke:none"
             d="m 1520.22,652.41 c -0.16,1.461 -2.16,1.461 -2.32,0 -2.18,-20.351 -5.95,-54.16 11.7,-69.301 1.52,-1.308 4.74,-0.64 4.46,1.84 -1.17,10.262 -6.7,19.43 -8.87,29.66 -2.62,12.36 -3.61,25.223 -4.97,37.801" /><path
             id="path170"
             style="fill:#fff;fill-opacity:1;fill-rule:nonzero;stroke:none"
             d="m 1350.92,723.648 c 0.31,1.473 -1.76,2.043 -2.24,0.622 -4.28,-12.559 -7.06,-24.098 -5.28,-37.391 1.43,-10.699 3.42,-25.379 13.14,-31.57 1.51,-0.95 4.1,-0.11 4.41,1.8 1.33,8.461 -3.2,15.52 -5.62,23.653 -4.1,13.758 -7.42,28.597 -4.41,42.886" /><path
             id="path172"
             style="fill:#fff;fill-opacity:1;fill-rule:nonzero;stroke:none"
             d="m 1765.77,579.621 c -9.3,7.508 -15.6,17.758 -25.6,24.641 -10.5,7.179 -23.19,4.758 -34.28,0.636 -13.05,-4.828 -17.58,-15.668 -21.62,-27.839 -0.48,-1.45 1.82,-2.438 2.48,-1.028 8.76,18.629 33.98,28.149 50.28,13.617 9.19,-8.179 15.37,-18.507 25.65,-25.687 1.96,-1.359 5.36,-1.352 7.32,0 7.89,5.469 1,11.418 -4.23,15.66" /><path
             id="path174"
             style="fill:#fff;fill-opacity:1;fill-rule:nonzero;stroke:none"
             d="m 1947.47,655.582 c 1.32,-1.551 4.26,-1.16 5.16,0.648 1.65,3.29 1.01,6.93 2.8,10.141 2.12,3.758 5.12,4.891 8.75,6.949 0.79,0.469 0.86,1.762 0,2.18 -11.87,6.07 -25.54,-9.559 -16.71,-19.918" /><path
             id="path176"
             style="fill:#fff;fill-opacity:1;fill-rule:nonzero;stroke:none"
             d="m 1240.08,779.762 c -3.2,3.867 -4.94,8.136 -6.16,12.968 -2.14,8.532 -2.18,18.79 0.12,27.219 0.43,1.61 -1.83,2.11 -2.43,0.66 -3.93,-9.64 -6.96,-19.449 -4.95,-29.89 1.55,-8.008 5.89,-20.989 15.8,-21.02 1.48,0 2.86,1.551 2.33,3.071 -1.06,2.941 -2.69,4.562 -4.71,6.992" /><path
             id="path178"
             style="fill:#fff;fill-opacity:1;fill-rule:nonzero;stroke:none"
             d="m 1190.16,864.91 c -0.66,-0.039 -0.77,-0.93 -0.15,-1.14 7.03,-2.598 11.37,-8.469 13.48,-15.461 0.83,-2.719 -0.11,-14.258 5.62,-12.098 1.06,0.391 2.28,1.199 2.46,2.461 1.95,13.328 -7.06,27.109 -21.41,26.238" /><path
             id="path180"
             style="fill:#fff;fill-opacity:1;fill-rule:nonzero;stroke:none"
             d="m 1114.36,957.898 c -0.13,1.422 -2.01,1.711 -2.47,0.332 -1.82,-5.308 -3.12,-10.941 -2.29,-16.531 0.71,-4.847 1.33,-11.269 6.41,-13.41 1.44,-0.609 3.05,-0.199 3.55,1.441 1.3,4.239 -1.13,8.059 -2.25,12.161 -1.43,5.191 -2.51,10.629 -2.95,16.007" /><path
             id="path182"
             style="fill:#fff;fill-opacity:1;fill-rule:nonzero;stroke:none"
             d="m 1453.49,634 c -0.85,-1.09 0.18,-2.66 1.53,-1.969 6.58,3.469 12.65,3.481 18.02,-1.883 4.36,-4.347 6.92,-10.238 9.89,-15.539 0.71,-1.25 2.22,-2.168 3.69,-2.121 1.91,0.082 2.58,0.66 3.71,2.121 0.95,1.243 0.6,3.063 0,4.34 -6.72,13.93 -23.27,32.59 -36.84,15.051" /><path
             id="path184"
             style="fill:#fff;fill-opacity:1;fill-rule:nonzero;stroke:none"
             d="m 1893.13,2197.9 c -56.72,53.69 -99.58,50.74 -164.46,28.53 -24.17,-8.29 -44.43,-19.83 -69.45,-9.8 -23.02,9.23 -41.02,19.08 -53.36,23.13 -30.02,9.84 -60.16,-11.64 -79.97,-28.81 -7,-6.05 1.79,-17.83 10.26,-12.76 18.67,11.15 37.86,26.23 63,21.46 12.26,-2.3 38.74,-13.66 49.08,-19.74 21.19,-12.47 41.43,-12.11 60.26,-6.33 26.47,8.13 42.78,16.27 69.38,23.58 33.09,9.08 60.73,-7.45 100.11,-27.56 8.19,-4.18 21.98,1.83 15.15,8.3" /><path
             id="path186"
             style="fill:#fff;fill-opacity:1;fill-rule:nonzero;stroke:none"
             d="m 1862.57,2141.83 c -47.28,44.75 -83,42.29 -137.07,23.78 -20.15,-6.91 -37.03,-16.53 -57.89,-8.17 -19.19,7.69 -34.19,15.9 -44.47,19.28 -25.03,8.2 -50.14,-9.7 -66.66,-24.01 -5.83,-5.05 1.5,-14.86 8.56,-10.64 15.56,9.29 31.55,21.87 52.5,17.88 10.22,-1.91 32.3,-11.38 40.91,-16.45 17.66,-10.39 34.53,-10.09 50.23,-5.27 22.06,6.78 35.65,13.56 57.82,19.65 27.58,7.57 50.62,-6.21 83.44,-22.97 6.82,-3.48 18.32,1.53 12.63,6.92" /><path
             id="path188"
             style="fill:#fff;fill-opacity:1;fill-rule:nonzero;stroke:none"
             d="m 2835.53,1749.04 c -2.43,26.02 -5.41,51.88 -9.53,77.37 -0.52,5.43 -0.89,9.34 -0.89,9.34 l -0.85,-0.02 c -44.16,259.41 -174.61,489.75 -360.85,660.29 12.06,-22.86 72.68,-114.61 93.92,-224.11 7.53,-38.84 9.55,-78.85 9.83,-118.3 0.02,-3.3 -0.16,-6.46 -0.47,-9.54 57.88,-101.39 98.85,-213.6 119.06,-332.79 2.43,-27.53 6.05,-71.66 4.22,-72.27 -36.5,-12.06 -91.74,-84.18 -83.76,-137.04 7.98,-52.86 63.93,-84 92.74,-83.42 28.8,0.58 49.88,41.34 49.88,41.34 -4.87,12.59 -32.63,17.79 -32.63,17.79 36.8,4.2 60.47,-26.45 60.47,-26.45 61.14,-60.67 127.93,-21.97 126.08,70.2 -1.57,77.73 -51.55,117.13 -67.22,127.61" /><path
             id="path190"
             style="fill:#fff;fill-opacity:1;fill-rule:nonzero;stroke:none"
             d="m 2763.4,1535.24 c -8.8,-7.82 -40.08,-41.55 -72.84,-29.82 0,0 -3.91,-25.91 -8.96,-57.91 -51.53,-267.61 -198.61,-490.998 -415.34,-640.139 -26.28,-61.769 -90.24,-174.922 -180.16,-253.82 387.02,145.09 683.94,534.279 748.18,953.819 -46.44,-2.93 -70.52,27.86 -70.88,27.87" /><path
             id="path192"
             style="fill:#fff;fill-opacity:1;fill-rule:nonzero;stroke:none"
             d="m 684.547,1858.5 c 43.789,200.33 146.562,378.87 289.144,516.33 12.805,41.77 31.869,106.79 47.509,146.87 17.86,45.77 40.04,99.93 40.04,99.93 -265.287,-168.29 -457.916,-441.32 -519.611,-760.46 -0.461,-3.55 -2.172,-16.5 -2.172,-16.5 32.508,-4.89 50.238,-27.4 54.996,-29.82 0,38.62 81.508,47.12 90.094,43.65" /><path
             id="path194"
             style="fill:#fff;fill-opacity:1;fill-rule:nonzero;stroke:none"
             d="M 1132.65,781.199 C 877.262,944.531 699.047,1218.29 666.191,1534.71 c -0.976,10.79 -2.343,26.37 -3.468,41 -0.809,12.8 -1.321,25.68 -1.653,38.6 0.063,0.21 0.106,0.58 0.188,0.61 l 0.652,33.24 c 0,0 6.672,-14.3 6.93,-29.99 36.055,18.44 83.621,84.47 76.176,133.79 -7.981,52.85 -63.934,84 -92.739,83.42 -28.8,-0.58 -49.879,-41.34 -49.879,-41.34 4.864,-12.59 32.629,-17.79 32.629,-17.79 -36.797,-4.2 -60.464,26.45 -60.464,26.45 -61.149,60.67 -127.942,21.97 -126.086,-70.2 1.859,-92.17 72,-130.62 72,-130.62 1.628,-29.98 5.64,-83.7 5.64,-83.7 l 0.395,0.01 c 48.328,-458.12 364.222,-837.479 788.148,-978.651 -68.03,60.102 -143.96,143.75 -182.01,241.66" /><g
             transform="scale(10)"
             id="g196">
</g><path
             id="path322"
             style="fill:#fff;fill-opacity:1;fill-rule:nonzero;stroke:none"
             d="m 2128.65,2626.86 c -3.22,26.5 -1.27,61.68 0.53,83.51 -139.45,59.86 -287.03,90.82 -448.82,90.82 -108.35,0 -213.03,-15.41 -312.5,-43.44 -1.47,-13.55 -1.22,-27.58 3.29,-38.39 11.39,-27.34 37.23,-51.64 37.95,-96.41 86.42,24.07 177.24,37.46 271.26,37.46 161.33,0 303.06,-32.22 437.84,-98.73 6.56,17.85 13.18,42.62 10.45,65.18" /></g></g></g></g></svg>